<?xml version="1.0" encoding="UTF-8" standalone="no"?>
<svg
   xmlns:dc="http://purl.org/dc/elements/1.1/"
   xmlns:cc="http://creativecommons.org/ns#"
   xmlns:rdf="http://www.w3.org/1999/02/22-rdf-syntax-ns#"
   xmlns:svg="http://www.w3.org/2000/svg"
   xmlns="http://www.w3.org/2000/svg"
   xmlns:sodipodi="http://sodipodi.sourceforge.net/DTD/sodipodi-0.dtd"
   xmlns:inkscape="http://www.inkscape.org/namespaces/inkscape"
   version="1.1"
   id="svg1484"
   width="135"
   height="100"
   viewBox="0 0 135 100"
   sodipodi:docname="homestew_bowl.svg"
   inkscape:version="1.0.2-2 (e86c870879, 2021-01-15)">
  <metadata
     id="metadata1490">
    <rdf:RDF>
      <cc:Work
         rdf:about="">
        <dc:format>image/svg+xml</dc:format>
        <dc:type
           rdf:resource="http://purl.org/dc/dcmitype/StillImage" />
        <dc:title></dc:title>
      </cc:Work>
    </rdf:RDF>
  </metadata>
  <defs
     id="defs1488" />
  <sodipodi:namedview
     pagecolor="#ffffff"
     bordercolor="#666666"
     borderopacity="1"
     objecttolerance="10"
     gridtolerance="10"
     guidetolerance="10"
     inkscape:pageopacity="0"
     inkscape:pageshadow="2"
     inkscape:window-width="1920"
     inkscape:window-height="1001"
     id="namedview1486"
     showgrid="false"
     inkscape:zoom="1.296875"
     inkscape:cx="353.92771"
     inkscape:cy="269.87952"
     inkscape:window-x="-9"
     inkscape:window-y="-9"
     inkscape:window-maximized="1"
     inkscape:current-layer="g1492" />
  <g
     inkscape:groupmode="layer"
     inkscape:label="Image"
     id="g1492">
    <path
       style="fill:#f4b43f;stroke-width:0.803429"
       d="m 40.425112,92.399034 c -0.53253,-0.528 -0.96824,-2.07588 -0.96824,-3.43974 0,-2.38756 -0.21745,-2.54335 -5.84985,-4.19139 -13.65108,-3.9943 -24.0390601,-15.502911 -28.0587601,-31.085678 -2.02784,-7.86133 -2.03523,-10.43269 -0.033,-11.49505 1.02322,-0.54296 17.3323801,-0.82814 47.3599001,-0.82814 h 45.799206 l 7.075962,-4.6 c 5.41539,-3.5205 7.19507,-5.12885 7.58351,-6.85352 0.37416,-1.66122 1.91912,-3.15035 5.878,-5.66565 9.28472,-5.89907 8.5707,-5.78975 11.37939,-1.74223 1.35478,1.95233 2.46324,3.93246 2.46324,4.40032 0,0.46785 -3.06979,2.87612 -6.82173,5.35172 -5.52654,3.64651 -7.22629,4.40041 -8.95261,3.97082 -1.61876,-0.40282 -3.1296,0.1029 -6.28618,2.10414 l -4.15527,2.6344 2.82022,0.21595 c 6.89421,0.52791 6.72715,0.32801 6.23414,7.45965 -0.35458,5.1292 -1.02383,7.604567 -3.39347,12.551877 -6.00005,12.52673 -14.072082,20.103741 -25.000267,23.467111 -5.84388,1.79859 -6.0848,1.96999 -6.0848,4.32907 0,1.35099 -0.43574,2.88834 -0.96825,3.41634 -1.37529,1.36354 -38.645761,1.36354 -40.020981,0 z m 36.148001,-4.64 c 0,-1.54797 -0.53796,-1.6 -16.540961,-1.6 -16.00301,0 -16.54094,0.052 -16.54094,1.6 0,1.54797 0.53793,1.6 16.54094,1.6 16.003001,0 16.540961,-0.052 16.540961,-1.6 z m 12.30211,-7.85648 c 2.655065,-1.06302 6.595285,-3.627421 9.219105,-6.000001 7.592642,-6.86565 11.710232,-14.35055 13.611902,-24.743517 l 0.54893,-3 H 60.242442 8.2297319 l 0.66283,4.2 c 1.5506101,9.826387 11.1772101,23.690067 19.3373101,27.848538 7.31413,3.72732 8.74695,3.88859 33.01261,3.71549 21.982741,-0.15681 23.200211,-0.24582 27.632741,-2.02051 z M 29.525182,71.694113 c -4.51485,-2.96502 -7.67699,-6.78018 -10.7223,-12.93653 -1.69746,-3.431647 -2.03856,-4.819387 -1.35173,-5.500307 1.55752,-1.5443 3.27135,-0.16849 5.43271,4.361207 1.89749,3.97679 5.87587,8.21171 12.21649,13.00421 2.31364,1.74872 2.11445,3.53634 -0.39401,3.53634 -0.7853,0 -3.11683,-1.10922 -5.18116,-2.46492 z M 123.81597,28.827126 c 2.80309,-1.84528 4.17054,-3.21271 3.68961,-3.68954 -0.81641,-0.80946 -9.78189,4.59741 -9.78189,5.89924 0,1.32706 1.60296,0.74566 6.09228,-2.2097 z m -76.826268,2.47813 c -0.26688,-0.68957 -0.074,-1.66157 0.42879,-2.16 1.31612,-1.30491 1.13386,-3.02034 -0.69976,-6.58622 -2.08758,-4.05981 -2.03749,-6.23368 0.2017,-8.75478 1.334,-1.50191 2.13351,-1.84154 3.0147,-1.2806 0.99558,0.63378 1.03548,1.19339 0.23501,3.296 -0.82271,2.16097 -0.73228,2.98329 0.61629,5.60412 1.81603,3.52947 2.01215,7.70436 0.4572,9.73526 -1.3314,1.73898 -3.60719,1.81722 -4.25393,0.14622 z m 11.33142,0.0909 c -0.24758,-0.63959 0.12691,-1.97969 0.8322,-2.978 1.83069,-2.59139 1.60681,-4.63528 -1.1377,-10.38727 -2.7607,-5.78588 -2.99813,-8.2800797 -1.05601,-11.0938198 1.74656,-2.53048 2.66389,-3.12977 4.00797,-2.6184 1.448611,0.55113 1.374221,3.00382 -0.12854,4.2403901 -1.70071,1.39945 -1.53181,2.6070597 1.094141,7.8228197 3.44992,6.85216 3.68114,8.58084 1.69263,12.65353 -1.75915,3.60291 -4.373601,4.76644 -5.304691,2.36075 z m 11.600741,0.17929 c -0.18188,-0.54099 0.0274,-1.92479 0.46557,-3.07511 0.62331,-1.6372 0.39587,-3.0492 -1.04692,-6.50053 -1.65423,-3.95713 -1.72874,-4.64637 -0.72694,-6.72489 0.63018,-1.30746 1.88032,-2.42417 2.87102,-2.5646 1.60338,-0.22728 1.74712,0.0834 1.66558,3.6 -0.0486,2.1168 0.55085,5.46874 1.33326,7.44874 1.35407,3.42678 1.3548,3.7251 0.0151,6.2 -1.40142,2.58922 -3.94746,3.48842 -4.57683,1.61639 z"
       id="path1496" />
  </g>
</svg>
