<?xml version="1.0" encoding="UTF-8" standalone="no"?>
<svg
   xmlns:dc="http://purl.org/dc/elements/1.1/"
   xmlns:cc="http://creativecommons.org/ns#"
   xmlns:rdf="http://www.w3.org/1999/02/22-rdf-syntax-ns#"
   xmlns:svg="http://www.w3.org/2000/svg"
   xmlns="http://www.w3.org/2000/svg"
   width="158.80942mm"
   height="56.569809mm"
   viewBox="0 0 158.80942 56.569808"
   version="1.1"
   id="svg8">
  <defs
     id="defs2" />
  <metadata
     id="metadata5">
    <rdf:RDF>
      <cc:Work
         rdf:about="">
        <dc:format>image/svg+xml</dc:format>
        <dc:type
           rdf:resource="http://purl.org/dc/dcmitype/StillImage" />
        <dc:title></dc:title>
      </cc:Work>
    </rdf:RDF>
  </metadata>
  <g
     id="layer1"
     transform="translate(-27.786138,-109.2619)">
    <g
       id="g186">
      <path
         style="fill:#e2a29d;stroke-width:0.264583"
         d="m 34.063368,165.33845 -2.337893,0.49326 -0.08909,-0.29298 -0.08909,-0.29298 -0.123163,-4.04945 -0.123161,-4.04946 -0.137245,-0.13724 -0.137245,-0.13724 -0.805198,0.41638 -0.805199,0.41638 H 29.17085 28.925613 l -0.561652,-2.23938 -0.561655,-2.23938 v -0.25633 -0.25633 l 0.463021,-0.13437 0.463021,-0.13438 1.160785,-0.3003 1.160785,-0.30031 -0.191606,-6.19773 -0.191603,-6.19774 h 3.593637 3.593637 l -0.172601,5.93077 -0.172601,5.93077 2.092074,0.093 2.092076,0.093 0.08482,-0.0452 0.08482,-0.0452 0.233897,-4.3249 0.233897,-4.3249 0.168849,-1.68618 0.168846,-1.68618 3.216603,0.18441 3.216604,0.18441 0.553968,0.13101 0.553966,0.13101 -0.340373,1.95735 -0.340373,1.95735 -0.544322,4.25838 -0.544325,4.25839 v 2.74015 2.74016 l 0.1606,0.41851 0.160599,0.41852 h 0.597469 0.597469 l 0.648287,-0.50995 0.648288,-0.50994 0.416819,-1.01141 0.416817,-1.01141 0.256587,-2.01228 0.25659,-2.01228 0.658969,-1.43938 0.658971,-1.43937 0.83625,-0.95244 0.836253,-0.95244 1.250654,-0.58788 1.250653,-0.58788 1.7228,0.12369 1.7228,0.12368 1.098886,0.56113 1.098889,0.56113 0.817478,0.99174 0.817478,0.99175 0.525592,1.11815 0.525595,1.11815 0.172625,1.07954 0.172624,1.07954 0.560417,-0.17718 0.560417,-0.17718 0.573095,-0.37461 0.573095,-0.37462 0.167241,-0.43582 0.16724,-0.43582 -0.182504,-3.12018 -0.182507,-3.12018 h 4.006234 4.006231 l 0.198437,-0.0512 0.198438,-0.0511 0.132291,0.7053 0.132292,0.70531 0.396875,-0.25324 0.396875,-0.25323 1.305528,-0.004 1.305526,-0.004 1.120624,0.54249 1.120624,0.54248 0.699638,0.91728 0.699638,0.91727 0.84296,-1.24228 0.842962,-1.24227 0.707895,-0.51901 0.707896,-0.51901 1.2784,-0.12284 1.278404,-0.12284 1.17911,0.3175 1.17911,0.3175 0.974053,0.97405 0.974051,0.97406 0.438745,1.44791 0.438748,1.44792 0.134366,3.43959 0.134366,3.43958 0.121116,0.59531 0.121113,0.59531 h 0.625631 0.625631 l 0.950113,-1.05166 0.950114,-1.05166 0.12601,-0.60198 0.126013,-0.60199 0.09439,-2.24911 0.09439,-2.24912 0.779428,-1.57459 0.77943,-1.57459 1.11802,-0.85274 1.11801,-0.85274 1.46159,-0.30342 1.46158,-0.30343 1.47342,0.18409 1.47343,0.1841 1.36871,0.69473 1.36872,0.69474 0.73048,1.19775 0.73048,1.19775 0.30335,1.44808 0.30334,1.44809 -0.18355,1.22139 -0.18355,1.2214 -2.83336,0.17863 -2.83337,0.17864 -1.25677,0.15541 -1.25677,0.15541 0.006,0.56122 0.006,0.56123 0.50798,1.11901 0.50797,1.11902 0.87528,0.53364 0.87528,0.53364 1.05833,-0.002 1.05834,-0.002 1.36813,-0.63701 1.36813,-0.637 1.06327,-1.09563 1.06327,-1.09563 0.42094,-1.10905 0.42094,-1.10905 -0.53724,-1.04814 -0.53724,-1.04813 v -1.27751 -1.27751 l 0.51358,-1.0067 0.51358,-1.0067 0.9379,-0.82349 0.9379,-0.82348 1.37467,-0.40824 1.37465,-0.40825 1.34104,0.006 1.34104,0.006 1.12558,0.51091 1.12558,0.51092 0.68329,0.73727 0.68328,0.73728 0.34407,0.82347 0.34406,0.82347 0.1818,1.07604 0.1818,1.07604 -1.54098,0.17026 -1.54098,0.17027 -0.68029,0.12644 -0.68029,0.12644 -0.29114,-0.63897 -0.29113,-0.63897 -0.79301,-0.27645 -0.79302,-0.27644 -0.48101,0.35172 -0.481,0.35172 0.52565,0.58738 0.52566,0.58738 1.05833,0.65997 1.05833,0.65997 1.35966,1.03499 1.35965,1.03499 0.6596,0.9827 0.65961,0.9827 0.16155,0.88297 0.16156,0.88297 -0.29345,1.16536 -0.29343,1.16536 -1.03606,1.17702 -1.03605,1.17701 -1.45656,0.54497 -1.45655,0.54497 h -1.56833 -1.56833 l -1.25648,-0.42659 -1.25647,-0.42658 -0.82229,-0.62719 -0.82229,-0.62719 -0.34612,-0.64675 -0.34613,-0.64674 -1.31455,0.90425 -1.31454,0.90425 -1.34492,0.39939 -1.34491,0.39938 h -1.50622 -1.50621 l -1.09581,-0.38663 -1.09582,-0.38663 -0.86193,-0.65742 -0.86193,-0.65743 -1.02826,-1.58891 -1.02827,-1.58892 -0.584329,1.26121 -0.584327,1.26121 -0.8947,1.01901 -0.894696,1.01902 -1.058333,0.45477 -1.058334,0.45477 -0.933963,0.16362 -0.933961,0.16363 -1.175551,-0.59638 -1.175549,-0.59638 -0.623705,-1.22859 -0.623705,-1.22859 -0.246872,-3.72227 -0.246873,-3.72227 -0.328355,-1.00226 -0.328356,-1.00227 h -0.524449 -0.524447 l -0.329766,0.68803 -0.329769,0.68804 -0.263869,1.82551 -0.263869,1.8255 -0.0072,1.71979 -0.0072,1.7198 -0.277929,1.71979 -0.277929,1.71979 -0.197001,0.19911 -0.196998,0.19912 -2.764218,-0.16878 -2.764219,-0.16877 0.08325,-4.43646 0.08325,-4.43646 -0.295555,-1.09761 -0.295555,-1.09761 -0.42422,-0.16279 -0.42422,-0.16279 -0.456104,0.56327 -0.456105,0.56327 -0.286933,1.66366 -0.286932,1.66367 -0.168532,3.37511 -0.168529,3.37511 -0.568577,0.1229 -0.568573,0.1229 -2.768698,0.39197 -2.768695,0.39198 -0.05453,-0.0545 -0.05454,-0.0545 -0.191709,-4.44083 -0.191709,-4.44083 -0.556935,0.52161 -0.556934,0.52161 -0.744829,0.28221 -0.744828,0.28221 H 65.937008 64.94785 l -1.363081,-0.67925 -1.36308,-0.67926 -0.843727,-0.96095 -0.843727,-0.96095 -0.535297,-1.20407 -0.5353,-1.20406 -0.477906,1.05833 -0.477904,1.05833 -0.0065,1.85209 -0.0065,1.85208 0.462609,0.92604 0.46261,0.92604 0.831453,0.0808 0.831454,0.0808 0.540017,-0.75839 0.540017,-0.75838 0.172752,-0.68829 0.172749,-0.6883 1.101614,0.50019 1.101611,0.50018 0.859896,0.006 0.859896,0.006 -0.0058,0.46302 -0.0058,0.46302 -0.508278,1.1197 -0.508278,1.11969 -1.2247,1.30931 -1.224698,1.3093 -1.218764,0.41527 -1.218761,0.41527 h -1.178941 -1.178941 l -1.08903,-0.32539 -1.08903,-0.32539 -1.063837,-1.06367 -1.063839,-1.06367 -0.48536,-1.0247 -0.485359,-1.02471 -0.475002,1.06096 -0.475003,1.06095 -1.000462,1.10739 -1.000458,1.10739 -0.985956,0.503 -0.985957,0.50299 -1.016466,0.15428 -1.016468,0.15428 -1.175295,-0.61029 -1.175293,-0.61029 -0.501001,-0.98585 -0.501002,-0.98585 -0.243023,-1.65998 -0.243019,-1.65999 -0.147416,-1.25677 -0.147417,-1.25677 H 39.692285 37.59183 v 4.36059 4.36058 l -0.595313,0.13549 -0.595312,0.13549 -2.337893,0.49326 z m 85.847682,-4.99554 1.22438,0.008 0.35033,-0.42212 0.35033,-0.42212 -0.38696,-0.6894 -0.38695,-0.6894 -1.9815,-1.40425 -1.9815,-1.40424 -0.17314,1.16931 -0.17314,1.16931 -0.16005,0.50428 -0.16005,0.50427 0.59777,0.54147 0.59777,0.54146 0.52917,0.29267 0.52917,0.29267 1.22437,0.008 z m -13.59364,-6.70186 0.46302,-0.13098 1.39859,-0.17757 1.3986,-0.17757 -0.16937,-0.56917 -0.16938,-0.56918 -0.38589,-0.61129 -0.38589,-0.61128 -0.70249,0.0821 -0.7025,0.0821 -0.60386,0.89902 -0.60385,0.89903 v 0.50786 0.50787 z m 28.37656,11.0164 -0.92604,0.1447 -0.76615,-0.22865 -0.76615,-0.22864 -0.74813,-0.71676 -0.74814,-0.71676 -0.39147,-1.21405 -0.39147,-1.21404 -0.27021,-2.02042 -0.27021,-2.02043 -0.18017,-4.39572 -0.18017,-4.39572 h -1.0173 -1.01731 v -2.64584 -2.64583 h 0.92605 0.92604 v -1.5476 -1.54759 l 2.57968,-0.17083 2.57969,-0.17082 1.55916,-0.001 1.55917,-0.001 -0.14509,2.11667 -0.14508,2.11666 h 0.90103 0.90102 v 1.98438 1.98437 h -1.02526 -1.02526 l -0.16593,0.82966 -0.16593,0.82967 -0.15989,4.52815 -0.15988,4.52815 0.38386,0.50203 0.38387,0.50204 0.69073,-0.17336 0.69073,-0.17336 0.7395,-0.96889 0.7395,-0.96888 0.15253,-2.71375 0.15252,-2.71374 0.84146,-1.70924 0.84145,-1.70924 0.85811,-0.64157 0.8581,-0.64158 0.92604,-0.37737 0.92604,-0.37736 1.71979,-0.003 1.7198,-0.003 1.31419,0.3812 1.3142,0.38119 1.11568,1.11568 1.11568,1.11568 0.41439,1.39542 0.4144,1.39542 -0.004,1.47333 -0.004,1.47333 -0.19438,0.29307 -0.19439,0.29307 -2.64583,0.17505 -2.64584,0.17506 -1.41224,0.16057 -1.41225,0.16057 0.17816,0.94967 0.17816,0.94966 0.36778,0.7112 0.36777,0.7112 0.89754,0.55472 0.89754,0.55471 h 0.92148 0.92147 l 0.89938,-0.30655 0.89938,-0.30655 1.13303,-0.77038 1.13303,-0.77038 0.69419,-1.04898 0.69418,-1.04899 -0.30586,-2.48884 -0.30586,-2.48884 v -2.3967 -2.39671 l 3.50573,-5.3e-4 3.50573,-5.3e-4 -0.0848,2.22291 -0.0848,2.22291 0.42623,2.47406 0.42623,2.47407 0.45235,0.91163 0.45235,0.91163 0.31521,0.0974 0.3152,0.0974 0.40903,-0.79096 0.40902,-0.79097 0.42606,-2.46705 0.42606,-2.46706 -0.10014,-1.77765 -0.10014,-1.77765 0.66964,-0.12666 0.66964,-0.12666 1.65365,-0.17219 1.65364,-0.17219 v 2.37257 2.37257 l 0.40726,2.33541 0.40726,2.33541 0.32236,0.67257 0.32236,0.67258 0.41383,0.0797 0.41384,0.0797 0.30179,-0.66237 0.3018,-0.66236 0.45257,-2.19222 0.45258,-2.19223 0.0204,-2.97493 0.0204,-2.97492 3.51107,-0.002 3.51107,-0.002 -0.17055,2.4474 -0.17055,2.44739 0.41629,0.99219 0.4163,0.99219 h 0.66251 0.66251 l 0.6734,-0.30682 0.6734,-0.30683 0.4483,-1.01609 0.4483,-1.01609 h 0.33397 0.33396 l 0.16583,0.88391 0.16582,0.88391 -0.28556,1.0605 -0.28557,1.0605 -0.60217,0.89356 -0.60217,0.89357 -0.89272,0.6016 -0.89273,0.60161 -1.21764,-0.006 -1.21765,-0.006 -1.16387,-0.52806 -1.16388,-0.52806 -0.11121,0.11122 -0.11122,0.11121 0.81207,0.4797 0.81207,0.4797 v 0.24122 0.24121 l -0.85527,1.73729 -0.85526,1.73729 -1.32755,1.34839 -1.32755,1.34838 -1.08903,0.32023 -1.08903,0.32023 h -0.72703 -0.72702 l -0.96661,-0.54326 -0.96661,-0.54327 -0.61036,-0.89074 -0.61035,-0.89075 -1.23718,1.27939 -1.23719,1.27941 -1.02296,0.18983 -1.02295,0.18983 -1.4237,-0.31861 -1.4237,-0.31861 -1.40046,-1.27994 -1.40046,-1.27994 -0.75413,-1.49052 -0.75414,-1.49053 -0.7359,1.28851 -0.7359,1.28852 -1.00078,0.87869 -1.00078,0.8787 -1.46728,0.67806 -1.46728,0.67806 -1.79939,0.10691 -1.7994,0.10692 -1.20067,-0.33617 -1.20066,-0.33617 -1.40522,-1.28428 -1.40521,-1.28429 -0.51629,-1.0435 -0.51628,-1.04351 -0.60304,1.2875 -0.60303,1.28751 -0.94101,0.96882 -0.94101,0.96881 -0.94273,0.47354 -0.94273,0.47354 -0.92604,0.1447 z m 11.80408,-11.00497 0.49905,-0.14241 1.39859,-0.17757 1.3986,-0.17757 -0.16938,-0.56917 -0.16937,-0.56918 -0.38589,-0.61129 -0.3859,-0.61128 -0.68487,0.0821 -0.68487,0.0821 -0.47725,0.66146 -0.47724,0.66146 -0.18026,0.75686 -0.18026,0.75687 z m -42.63686,-14.73277 h -6.385277 l -0.176387,-0.17639 -0.17639,-0.17639 v -0.9688 -0.96879 l -1.309105,-0.30218 -1.309108,-0.30217 -1.256112,-0.59045 -1.256115,-0.59044 -1.80867,-1.70621 -1.808671,-1.70621 -1.182402,-2.40755 -1.182404,-2.40755 -0.320733,-1.93186 -0.320734,-1.93186 0.283398,-0.44939 0.283398,-0.44939 15.317072,-0.13229 15.31706,-0.13229 2.29447,-1.45521 2.29446,-1.45521 0.14342,-0.71312 0.14342,-0.71313 1.92774,-1.29125 1.92774,-1.29125 0.45749,-0.16801 0.45748,-0.16801 0.79929,1.16173 0.79928,1.16172 v 0.28133 0.28133 l -2.23692,1.48864 -2.23692,1.48864 -0.69874,-0.17538 -0.69875,-0.17537 -1.36256,0.87128 -1.36256,0.87127 0.92479,0.0714 0.92479,0.0714 0.56613,0.12473 0.56613,0.12474 0.14466,0.37698 0.14466,0.37698 -0.25304,1.78677 -0.25304,1.78677 -0.70813,1.60884 -0.70812,1.60885 -0.99295,1.48703 -0.99294,1.48702 -1.27022,1.12842 -1.27023,1.12841 -1.31434,0.61601 -1.31435,0.61601 -1.26534,0.3243 -1.26534,0.3243 v 0.8231 0.82311 l -0.3175,0.3175 -0.3175,0.3175 z m 0.009,-1.32292 h 5.42396 v -0.52917 -0.52916 H 103.87 98.446045 v 0.52916 0.52917 z m 0.54399,-2.45458 7.42315,-0.059 2.01137,-0.99462 2.01138,-0.99461 1.36278,-1.4911 1.36278,-1.4911 0.74185,-1.48304 0.74186,-1.48303 0.27866,-0.92604 0.27866,-0.92605 0.16657,-0.99218 0.16656,-0.99219 H 104.01428 87.068962 v 0.75233 0.75233 l 0.496538,1.44321 0.496535,1.44321 0.543859,1.0456 0.543862,1.04561 1.105998,1.32292 1.105995,1.32291 1.219105,0.86817 1.219105,0.86817 1.59544,0.51371 1.595438,0.51372 z m -8.349187,-2.73914 -0.396875,0.39583 -0.867632,-0.36966 -0.86763,-0.36966 -1.396772,-1.39858 -1.396773,-1.39859 -0.741672,-1.51821 -0.741672,-1.51821 0.153501,-0.40002 0.1535,-0.40001 0.471326,10e-4 0.471324,0.001 0.895054,1.73094 0.895053,1.73094 1.089322,0.90846 1.089321,0.90847 0.79375,0.65026 0.79375,0.65026 -0.396875,0.39583 z m 26.924887,-13.85628 h 0.20197 l 1.38553,-0.93307 1.38553,-0.93307 v -0.25756 -0.25755 H 125.82636 125.69 l -1.45114,0.9635 -1.45114,0.9635 v 0.22713 0.22712 z m -22.70899,0.26458 h -0.480502 l -0.179112,-0.28981 -0.179115,-0.28981 0.344702,-0.64408 0.344697,-0.64408 -0.578075,-1.18985 -0.578075,-1.18986 v -0.73678 -0.73678 l 0.531061,-0.57003 0.531059,-0.57002 0.39498,0.15157 0.39498,0.15157 -0.004,0.43471 -0.004,0.43471 -0.24227,0.38294 -0.24227,0.38294 0.40488,0.93998 0.40487,0.93997 0.2098,0.69256 0.2098,0.69255 -0.4014,0.8288 -0.4014,0.8288 h -0.48051 z m 3.68287,0 h -0.50704 l -0.15308,-0.39891 -0.15308,-0.39892 0.42597,-0.65011 0.42596,-0.6501 -0.003,-0.60463 -0.003,-0.60462 -0.64793,-1.13329 -0.64794,-1.13329 -0.1729,-0.92164 -0.1729,-0.92164 0.33114,-0.79945 0.33115,-0.79945 0.49835,-0.26671 0.49834,-0.26671 0.25912,0.16014 0.25911,0.16014 v 0.35102 0.35102 l -0.38188,0.73608 -0.38188,0.73608 0.354,0.81552 0.35401,0.81551 0.58367,1.28899 0.58368,1.28898 -0.15208,0.76041 -0.15208,0.7604 -0.43415,0.66259 -0.43415,0.66259 h -0.50704 z m 3.7628,0 h -0.51784 l -0.13956,-0.22581 -0.13956,-0.22581 0.30947,-0.81985 0.30946,-0.81986 -0.58239,-1.16612 -0.5824,-1.16613 v -0.50746 -0.50746 l 0.41188,-0.58804 0.41188,-0.58804 h 0.49211 0.49212 l 0.11421,0.33073 0.11422,0.33073 -0.25794,0.57557 -0.25793,0.57558 0.61148,1.4753 0.61147,1.4753 -0.44142,0.92569 -0.44143,0.92568 z"
         id="path196" />
      <path
         style="fill:#f2b143;stroke-width:0.264583"
         d="m 32.804133,165.51392 -0.95129,0.17225 -0.171601,-2.20459 -0.171601,-2.20458 -0.0016,-2.18281 -0.0016,-2.18282 H 31.096454 30.68644 l -0.785365,0.40613 -0.785363,0.40613 -0.116316,-0.33998 -0.116314,-0.33998 -0.422036,-1.7198 -0.422037,-1.71979 -0.126437,-0.43231 -0.126434,-0.43231 0.735685,-0.17766 0.735687,-0.17766 1.012648,-0.26563 1.01265,-0.26564 -0.157699,-3.62231 -0.157697,-3.62231 -0.148553,-2.57969 -0.14855,-2.57969 h 2.633966 2.633965 l 0.826822,0.16537 0.826823,0.16536 v 5.92005 5.92006 h 2.194463 2.194459 l 0.336262,-6.01441 0.336261,-6.0144 0.101883,-0.10188 0.101881,-0.10188 3.511978,0.31052 3.511979,0.31052 0.07018,0.0702 0.07017,0.0702 -0.647213,4.34653 -0.647213,4.34652 -0.301448,3.57188 -0.301445,3.57187 0.158205,1.16393 0.158207,1.16394 0.296633,0.35742 0.296635,0.35742 h 0.344178 0.344178 l 0.823552,-0.69298 0.823553,-0.69297 0.427048,-0.82582 0.427048,-0.82582 0.206073,-2.04417 0.206074,-2.04418 0.714563,-1.59225 0.714563,-1.59226 1.257419,-1.17617 1.257419,-1.17617 1.148995,-0.30939 1.148996,-0.30939 1.301866,0.1727 1.301867,0.1727 0.987726,0.5039 0.987727,0.5039 1.104551,1.25484 1.104553,1.25483 0.568174,1.93123 0.568177,1.93122 h 0.304742 0.304742 l 0.899025,-0.60715 0.899022,-0.60715 v -3.32871 -3.32871 l 1.95815,-0.16518 1.958149,-0.16518 h 2.076747 2.076746 v 0.68976 0.68977 l 0.463021,-0.18983 0.463021,-0.18983 1.127585,-0.13782 1.127583,-0.13782 1.182664,0.45166 1.182663,0.45166 1.024022,1.16335 1.024023,1.16335 0.291605,-0.64 0.291608,-0.64001 0.967242,-1.07062 0.967246,-1.07063 1.002942,-0.30049 1.002943,-0.30049 1.150811,0.17424 1.150813,0.17422 1.052367,0.59244 1.052367,0.59244 0.773044,1.51157 0.773046,1.51157 0.162832,4.2622 0.162833,4.26221 0.494215,0.36137 0.494215,0.36139 0.759815,-0.39292 0.759815,-0.39292 0.632952,-0.98481 0.632949,-0.9848 0.137126,-2.38125 0.137123,-2.38125 0.433784,-1.22593 0.43378,-1.22592 0.96306,-1.12512 0.96306,-1.12512 1.0731,-0.48742 1.0731,-0.48742 1.95368,-0.006 1.95368,-0.006 1.008,0.30201 1.00799,0.302 0.97506,0.80373 0.97506,0.80372 0.62474,1.34167 0.62475,1.34166 0.003,2.02727 0.003,2.02726 -0.99219,0.14653 -0.99219,0.14653 -2.64583,0.16186 -2.64583,0.16185 -0.49414,0.13946 -0.49415,0.13945 0.14404,1.07386 0.14403,1.07387 0.49875,0.66802 0.49875,0.66801 0.67159,0.50142 0.6716,0.50142 h 1.24868 1.24868 l 1.4274,-0.69836 1.42741,-0.69837 1.06856,-1.21394 1.06856,-1.21396 0.29277,-0.97719 0.29278,-0.97719 -0.43032,-0.83215 -0.43033,-0.83215 -0.15824,-1.15449 -0.15823,-1.15448 0.52067,-1.16518 0.52068,-1.16518 0.76648,-0.76648 0.76648,-0.76647 1.05833,-0.47287 1.05833,-0.47287 1.38979,-0.1839 1.38979,-0.1839 1.24733,0.34923 1.24732,0.34923 1.07239,1.07402 1.07239,1.07401 0.32539,1.08903 0.3254,1.08903 v 0.67433 0.67434 l -1.93735,0.18154 -1.93734,0.18154 -0.82043,-0.82042 -0.82043,-0.82043 -0.48337,0.004 -0.48338,0.004 -0.35676,0.22608 -0.35676,0.22609 0.0922,0.47818 0.0922,0.47818 2.2035,1.50879 2.2035,1.50878 0.89514,0.86761 0.89513,0.8676 0.43683,0.92054 0.43683,0.92055 -0.11803,1.42323 -0.11803,1.42324 -0.80577,1.11995 -0.80578,1.11995 -1.53462,0.79375 -1.53462,0.79375 h -2.00308 -2.00309 l -1.25191,-0.48305 -1.25192,-0.48305 -1.0327,-1.17322 -1.03271,-1.17322 -1.38087,0.92926 -1.38087,0.92926 -1.47478,0.42873 -1.47477,0.42872 -1.66222,-0.13342 -1.66223,-0.13343 -1.16487,-0.68266 -1.16486,-0.68265 -0.82842,-0.94352 -0.82841,-0.94351 -0.54985,-1.0778 -0.54985,-1.0778 -0.746566,1.54818 -0.746561,1.54818 -0.816634,0.87048 -0.816634,0.87049 -1.129723,0.51276 -1.129723,0.51277 -1.287899,0.006 -1.287897,0.006 -1.001781,-1.00178 -1.001779,-1.00178 -0.269033,-1.04874 -0.269037,-1.04874 -0.268449,-3.57187 -0.268446,-3.57188 -0.312581,-0.87425 -0.312582,-0.87425 -0.564425,0.0805 -0.564547,0.0805 -0.474162,0.9699 -0.474165,0.9699 -0.254971,3.7926 -0.254971,3.7926 -0.203745,1.19062 -0.203748,1.19063 -2.777932,0.0745 -2.777934,0.0745 0.0066,-4.70471 0.0067,-4.7047 -0.350033,-0.9885 -0.350031,-0.9885 -0.239813,-0.14822 -0.239813,-0.14821 -0.525735,0.28137 -0.525732,0.28136 -0.426416,1.38452 -0.426413,1.38452 -0.14872,4.00747 -0.148719,4.00747 -2.724261,0.4243 -2.724264,0.4243 H 70.71066 70.193005 l -0.160599,-0.41852 -0.160599,-0.41851 v -2.05511 -2.05511 l -0.171752,-2.03183 -0.171754,-2.03182 -0.527177,0.56585 -0.527175,0.56586 -0.880073,0.36772 -0.880073,0.36772 -0.736102,-0.006 -0.736103,-0.006 -1.190625,-0.53784 -1.190625,-0.53783 -1.014606,-0.97771 -1.014608,-0.97771 -0.506746,-0.98165 -0.506748,-0.98165 v -0.40741 -0.40742 H 59.593239 59.36884 l -0.492712,1.09264 -0.492713,1.09264 -0.0105,1.88393 -0.01048,1.88392 0.348612,0.82557 0.348613,0.82558 0.643575,0.29323 0.643575,0.29323 0.648708,-0.29557 0.648708,-0.29557 0.409625,-0.86322 0.409626,-0.86323 v -0.31905 -0.31905 l 0.463021,0.19752 0.46302,0.19751 1.491573,0.42688 1.491575,0.42689 -0.536376,1.43787 -0.536374,1.43788 -1.253427,1.25342 -1.253426,1.25343 -1.40344,0.41678 -1.403443,0.41679 -0.811874,-0.002 -0.811874,-0.002 -1.019889,-0.2832 -1.019889,-0.28319 -1.149761,-1.05981 -1.149757,-1.05981 -0.575699,-1.18924 -0.575699,-1.18923 -0.505672,1.12945 -0.505669,1.12945 -0.913474,1.11477 -0.913474,1.11478 -1.144563,0.55407 -1.144567,0.55408 h -1.362466 -1.362467 l -0.932392,-0.81866 -0.932394,-0.81865 -0.402627,-1.35579 -0.402627,-1.3558 -0.167621,-2.1807 -0.167625,-2.1807 -1.086249,-0.16204 -1.086252,-0.16205 -1.190625,0.0854 -1.190625,0.0854 -0.07245,4.412 -0.07245,4.412 -1.77963,0.39846 -1.77963,0.39846 -0.951294,0.17225 z m 87.600317,-5.05767 0.92403,-0.15333 0.20045,-0.12389 0.20046,-0.12389 v -0.49191 -0.49191 l -0.16632,-0.43341 -0.16631,-0.43341 -1.93212,-1.30378 -1.93211,-1.30378 -0.16615,-0.26882 -0.16614,-0.26883 -0.18282,0.001 -0.18283,0.001 -0.0677,1.17613 -0.0677,1.17614 -0.2453,0.64519 -0.2453,0.64519 0.61863,0.58117 0.61862,0.58117 1.01728,0.37134 1.01727,0.37134 0.92402,-0.15333 z m -13.58661,-6.82784 1.2855,-0.17666 0.74979,-0.14817 0.74979,-0.14816 -0.16444,-0.70171 -0.16443,-0.70171 -0.65489,-0.58553 -0.65488,-0.58554 -0.59193,0.21786 -0.59192,0.21787 -0.43527,0.76455 -0.43526,0.76454 -0.18878,0.62966 -0.18878,0.62967 z m 27.32958,10.95489 -1.17324,-0.001 -0.8779,-0.53523 -0.87789,-0.53523 -0.49622,-1.1218 -0.49622,-1.12178 -0.27899,-1.74639 -0.27899,-1.74638 -0.26272,-4.99613 -0.26273,-4.99612 -0.002,-0.0661 -0.002,-0.0661 h -1.05833 -1.05834 v -2.64896 -2.64896 l 1.05834,0.16923 1.05833,0.16924 v -1.75361 -1.75361 l 1.78594,-0.002 1.78594,-0.002 2.19233,-0.17066 2.19233,-0.17066 -0.17985,2.15662 -0.17985,2.15662 h 0.97567 0.97567 l -0.0777,1.91823 -0.0777,1.91823 -1.08629,0.0795 -1.0863,0.0795 -0.16889,2.16947 -0.16889,2.16946 -0.002,3.35454 -0.002,3.35454 0.39223,0.39222 0.39222,0.39222 0.53001,-0.1386 0.53001,-0.1386 0.88892,-0.98393 0.88892,-0.98393 0.14749,-2.67653 0.14748,-2.67653 0.70216,-1.5352 0.70215,-1.5352 0.71264,-0.76097 0.71265,-0.76096 1.05833,-0.49 1.05834,-0.48999 2.00338,-0.006 2.00339,-0.006 1.22206,0.4164 1.22205,0.41639 1.05395,1.1434 1.05395,1.14341 0.2832,1.01989 0.28319,1.01988 0.002,1.89498 0.002,1.89497 -0.99219,0.14653 -0.99219,0.14653 -2.64583,0.16185 -2.64584,0.16186 -0.49414,0.13945 -0.49414,0.13946 0.14404,1.07386 0.14403,1.07387 0.49875,0.66802 0.49874,0.66801 0.6716,0.50142 0.67159,0.50142 h 1.20844 1.20843 l 1.27862,-0.56428 1.27863,-0.56427 1.01399,-0.97913 1.014,-0.97913 0.3966,-0.7561 0.39659,-0.7561 -0.16702,-0.66548 -0.16702,-0.66547 -0.2581,-2.9412 -0.25811,-2.94121 0.16906,-1.12732 0.16905,-1.12733 3.2111,2.7e-4 3.21111,2.6e-4 0.0423,2.71171 0.0423,2.71171 0.4002,2.00991 0.40021,2.00991 0.40389,0.96665 0.40389,0.96665 h 0.5002 0.50019 l 0.31868,-0.69942 0.31868,-0.69942 0.38525,-1.83142 0.38525,-1.83141 v -2.47721 -2.47721 l 1.52135,-0.16781 1.52136,-0.16782 0.66146,-0.11953 0.66145,-0.11953 0.05,2.85342 0.0499,2.85342 0.39899,1.91355 0.39899,1.91356 0.34837,0.72685 0.34838,0.72686 h 0.3933 0.39331 l 0.45154,-0.92604 0.45154,-0.92605 0.41431,-2.38125 0.4143,-2.38125 0.0451,-2.57968 0.0451,-2.57969 h 3.25622 3.25622 v 2.85154 2.85155 l 0.41188,0.58804 0.41188,0.58804 h 0.87535 0.87536 l 0.67683,-0.5324 0.67682,-0.53238 0.17671,-0.80455 0.17671,-0.80454 0.30662,0.10107 0.30663,0.10106 0.0701,1.43431 0.0701,1.4343 -0.81619,1.41214 -0.8162,1.41214 -1.21105,0.5357 -1.21105,0.5357 -1.05157,-0.14104 -1.05158,-0.14105 -1.35687,-0.68603 -1.35686,-0.68602 0.82719,0.76451 0.8272,0.76451 0.33618,0.11206 0.33618,0.11206 -0.8683,1.81937 -0.86831,1.81937 -1.48569,1.51267 -1.4857,1.51266 -1.35779,0.28352 -1.35779,0.28352 -0.85066,-0.24397 -0.85067,-0.24396 -0.41534,-0.34185 -0.41535,-0.34184 -0.71265,-0.98084 -0.71266,-0.98083 -0.6323,0.98083 -0.63251,0.98088 -1.23478,0.61278 -1.23479,0.61279 -1.53208,-0.28322 -1.53208,-0.28322 -1.00375,-0.66425 -1.00374,-0.66424 -0.92057,-1.25282 -0.92057,-1.25282 -0.43819,-1.12499 -0.43818,-1.12498 -0.59429,1.25728 -0.59428,1.25727 -1.15552,1.11105 -1.15551,1.11105 -1.55069,0.70771 -1.55067,0.70771 -1.65419,0.13278 -1.65419,0.13278 -1.4099,-0.46829 -1.4099,-0.46829 -1.21446,-1.21867 -1.21445,-1.21866 -0.5609,-1.13897 -0.56089,-1.13896 -0.64809,1.41562 -0.6481,1.41562 -0.84477,0.96214 -0.84477,0.96214 -1.13024,0.54714 -1.13024,0.54714 -1.17323,-0.001 z m 13.05715,-10.96112 1.38003,-0.17998 0.59531,-0.14618 0.59531,-0.14618 v -0.35574 -0.35574 l -0.29376,-0.64474 -0.29376,-0.64473 -0.56613,-0.25793 -0.56614,-0.25794 -0.57802,0.21384 -0.57801,0.21383 -0.31093,0.58097 -0.31092,0.58097 -0.2265,0.78976 -0.22651,0.78976 z m -43.30054,-14.70247 h -6.145894 l -0.3175,-0.3175 -0.3175,-0.3175 v -0.86809 -0.86808 l -0.727604,-0.15714 -0.727604,-0.15713 -1.498722,-0.53316 -1.498724,-0.53316 -1.694103,-1.39738 -1.694101,-1.39737 -0.943817,-1.4231 -0.943813,-1.4231 -0.451821,-1.05834 -0.451819,-1.05833 -0.38023,-1.24836 -0.380227,-1.24835 -0.0584,-1.39748 -0.05839,-1.39748 15.267969,-0.0683 15.26796,-0.0683 2.41475,-1.5616 2.41475,-1.5616 0.44125,-0.88365 0.44124,-0.88365 1.85208,-1.24967 1.85209,-1.24967 0.43615,-0.007 0.43616,-0.007 0.65835,1.11479 0.65835,1.1148 -0.10829,0.27427 -0.10829,0.27427 -1.99401,1.29905 -1.99402,1.29905 -0.92577,-0.0348 -0.92577,-0.0348 -1.4859,0.9847 -1.4859,0.98471 1.80303,0.0791 1.80304,0.0791 -0.14627,1.93402 -0.14627,1.93402 -0.81816,1.95565 -0.81815,1.95564 -1.3311,1.7703 -1.3311,1.77029 -1.61254,1.07681 -1.61253,1.0768 -1.81769,0.55211 -1.8177,0.55211 v 0.74908 0.74908 l -0.41577,0.41577 -0.41578,0.41578 h -6.14589 z m 0.0983,-1.32292 h 5.55625 v -0.52917 -0.52916 h -5.55625 -5.556247 v 0.52916 0.52917 z m 0.26459,-2.46101 7.8052,-0.0525 1.7198,-0.81826 1.71979,-0.81826 1.45521,-1.43872 1.4552,-1.43872 0.85165,-1.60103 0.85164,-1.60103 0.40513,-1.55539 0.40513,-1.55539 v -0.60587 -0.60587 H 103.85802 86.780407 l 0.166283,0.99218 0.166282,0.99219 0.406808,1.32292 0.40681,1.32291 0.744503,1.32292 0.744506,1.32292 0.967039,1.12806 0.967039,1.12807 1.17671,0.8096 1.176708,0.80959 1.379291,0.49612 1.379292,0.49612 z m -8.728777,-2.56607 h -0.438499 l -1.303343,-0.9255 -1.303343,-0.9255 -0.757865,-0.99273 -0.757867,-0.99273 -0.610177,-1.28991 -0.610179,-1.2899 0.139581,-0.36374 0.139581,-0.36374 h 0.363188 0.363191 l 0.570651,1.11856 0.570648,1.11857 0.650779,0.98339 0.650778,0.98339 1.414245,0.97403 1.414246,0.97403 0.129598,0.33773 0.129601,0.33773 -0.15816,0.15816 -0.158158,0.15816 z m 28.001707,-14.18558 0.70311,-0.45599 1.00287,-0.65895 1.00287,-0.65895 -0.26168,-0.26168 -0.26168,-0.26168 -0.74119,0.47122 -0.74119,0.47122 -0.86485,0.64369 -0.86486,0.64369 0.16175,0.26171 0.16175,0.26172 z m -23.36693,0.42724 h -0.359822 l -0.108437,-0.3253 -0.108437,-0.32532 0.261096,-0.69171 0.2611,-0.69173 -0.617314,-1.48936 -0.617307,-1.48937 0.30802,-0.67603 0.30802,-0.67603 0.416949,-0.16 0.416942,-0.16 0.29437,0.29437 0.29437,0.29437 -0.32547,0.60816 -0.32548,0.60816 0.53668,1.18312 0.53668,1.18313 0.006,0.66873 0.006,0.66874 -0.41188,0.58803 -0.41188,0.58804 h -0.35982 z m 3.69997,0 h -0.35563 l -0.11658,-0.33073 -0.11658,-0.33073 0.5469,-0.96344 0.5469,-0.96344 -0.88732,-1.68239 -0.88732,-1.68239 -0.0281,-1.09659 -0.0281,-1.09659 0.50403,-0.55706 0.50403,-0.55705 h 0.48816 0.48816 v 0.3463 0.34631 l -0.38846,0.51359 -0.38846,0.51359 -0.008,0.39687 -0.008,0.39688 0.79354,1.6774 0.79354,1.6774 v 0.9989 0.99889 l -0.54837,0.69714 -0.54837,0.69714 h -0.35563 z m 3.7843,0 h -0.23188 l -0.16575,-0.43192 -0.16574,-0.43192 0.31172,-0.49914 0.31171,-0.49914 -0.67773,-1.43261 -0.67773,-1.4326 0.39427,-0.94363 0.39427,-0.94362 h 0.54267 0.54267 v 0.41427 0.41427 l -0.24574,0.45916 -0.24574,0.45916 0.52858,1.17709 0.52858,1.17709 0.022,0.7284 0.022,0.7284 -0.47817,0.52837 -0.47817,0.52837 h -0.23188 z"
         id="path194" />
      <path
         style="fill:#cf5f57;stroke-width:0.264583"
         d="m 32.804133,165.51392 -0.95129,0.17225 -0.171601,-2.20459 -0.171601,-2.20458 -0.0016,-2.18281 -0.0016,-2.18282 H 31.096454 30.68644 l -0.785365,0.40613 -0.785363,0.40613 -0.116316,-0.33998 -0.116314,-0.33998 -0.422036,-1.7198 -0.422037,-1.71979 -0.126437,-0.43231 -0.126434,-0.43231 0.735685,-0.17766 0.735687,-0.17766 1.012648,-0.26563 1.01265,-0.26564 -0.157699,-3.62231 -0.157697,-3.62231 -0.148553,-2.57969 -0.14855,-2.57969 h 2.633966 2.633965 l 0.826822,0.16537 0.826823,0.16536 v 5.92005 5.92006 h 2.194463 2.194459 l 0.336262,-6.01441 0.336261,-6.0144 0.101883,-0.10188 0.101881,-0.10188 3.511978,0.31052 3.511979,0.31052 0.07018,0.0702 0.07017,0.0702 -0.647213,4.34653 -0.647213,4.34652 -0.301448,3.57188 -0.301445,3.57187 0.158205,1.16393 0.158207,1.16394 0.296633,0.35742 0.296635,0.35742 h 0.344178 0.344178 l 0.823552,-0.69298 0.823553,-0.69297 0.427048,-0.82582 0.427048,-0.82582 0.206073,-2.04417 0.206074,-2.04418 0.714563,-1.59225 0.714563,-1.59226 1.257419,-1.17617 1.257419,-1.17617 1.148995,-0.30939 1.148996,-0.30939 1.301866,0.1727 1.301867,0.1727 0.987726,0.5039 0.987727,0.5039 1.104551,1.25484 1.104553,1.25483 0.568174,1.93123 0.568177,1.93122 h 0.304742 0.304742 l 0.899025,-0.60715 0.899022,-0.60715 v -3.32871 -3.32871 l 1.95815,-0.16518 1.958149,-0.16518 h 2.076747 2.076746 v 0.68976 0.68977 l 0.463021,-0.18983 0.463021,-0.18983 1.127585,-0.13782 1.127583,-0.13782 1.182664,0.45166 1.182663,0.45166 1.024022,1.16335 1.024023,1.16335 0.291605,-0.64 0.291608,-0.64001 0.967242,-1.07062 0.967246,-1.07063 1.002942,-0.30049 1.002943,-0.30049 1.150811,0.17424 1.150813,0.17422 1.052367,0.59244 1.052367,0.59244 0.773044,1.51157 0.773046,1.51157 0.162832,4.2622 0.162833,4.26221 0.494215,0.36137 0.494215,0.36139 0.759815,-0.39292 0.759815,-0.39292 0.632952,-0.98481 0.632949,-0.9848 0.137126,-2.38125 0.137123,-2.38125 0.433784,-1.22593 0.43378,-1.22592 0.96306,-1.12512 0.96306,-1.12512 1.0731,-0.48742 1.0731,-0.48742 1.95368,-0.006 1.95368,-0.006 1.008,0.30201 1.00799,0.302 0.97506,0.80373 0.97506,0.80372 0.62474,1.34167 0.62475,1.34166 0.003,2.02727 0.003,2.02726 -0.99219,0.14653 -0.99219,0.14653 -2.64583,0.16186 -2.64583,0.16185 -0.49414,0.13946 -0.49415,0.13945 0.14404,1.07386 0.14403,1.07387 0.49875,0.66802 0.49875,0.66801 0.67159,0.50142 0.6716,0.50142 h 1.24868 1.24868 l 1.4274,-0.69836 1.42741,-0.69837 1.06856,-1.21394 1.06856,-1.21396 0.29277,-0.97719 0.29278,-0.97719 -0.43032,-0.83215 -0.43033,-0.83215 -0.15824,-1.15449 -0.15823,-1.15448 0.52067,-1.16518 0.52068,-1.16518 0.76648,-0.76648 0.76648,-0.76647 1.05833,-0.47287 1.05833,-0.47287 1.38979,-0.1839 1.38979,-0.1839 1.24733,0.34923 1.24732,0.34923 1.07239,1.07402 1.07239,1.07401 0.32539,1.08903 0.3254,1.08903 v 0.67433 0.67434 l -1.93735,0.18154 -1.93734,0.18154 -0.82043,-0.82042 -0.82043,-0.82043 -0.48337,0.004 -0.48338,0.004 -0.35676,0.22608 -0.35676,0.22609 0.0922,0.47818 0.0922,0.47818 2.2035,1.50879 2.2035,1.50878 0.89514,0.86761 0.89513,0.8676 0.43683,0.92054 0.43683,0.92055 -0.11803,1.42323 -0.11803,1.42324 -0.80577,1.11995 -0.80578,1.11995 -1.53462,0.79375 -1.53462,0.79375 h -2.00308 -2.00309 l -1.25191,-0.48305 -1.25192,-0.48305 -1.0327,-1.17322 -1.03271,-1.17322 -1.38087,0.92926 -1.38087,0.92926 -1.47478,0.42873 -1.47477,0.42872 -1.66222,-0.13342 -1.66223,-0.13343 -1.16487,-0.68266 -1.16486,-0.68265 -0.82842,-0.94352 -0.82841,-0.94351 -0.54985,-1.0778 -0.54985,-1.0778 -0.746566,1.54818 -0.746561,1.54818 -0.816634,0.87048 -0.816634,0.87049 -1.129723,0.51276 -1.129723,0.51277 -1.287899,0.006 -1.287897,0.006 -1.001781,-1.00178 -1.001779,-1.00178 -0.269033,-1.04874 -0.269037,-1.04874 -0.268449,-3.57187 -0.268446,-3.57188 -0.312581,-0.87425 -0.312582,-0.87425 -0.564425,0.0805 -0.564547,0.0805 -0.474162,0.9699 -0.474165,0.9699 -0.254971,3.7926 -0.254971,3.7926 -0.203745,1.19062 -0.203748,1.19063 -2.777932,0.0745 -2.777934,0.0745 0.0066,-4.70471 0.0067,-4.7047 -0.350033,-0.9885 -0.350031,-0.9885 -0.239813,-0.14822 -0.239813,-0.14821 -0.525735,0.28137 -0.525732,0.28136 -0.426416,1.38452 -0.426413,1.38452 -0.14872,4.00747 -0.148719,4.00747 -2.724261,0.4243 -2.724264,0.4243 H 70.71066 70.193005 l -0.160599,-0.41852 -0.160599,-0.41851 v -2.05511 -2.05511 l -0.171752,-2.03183 -0.171754,-2.03182 -0.527177,0.56585 -0.527175,0.56586 -0.880073,0.36772 -0.880073,0.36772 -0.736102,-0.006 -0.736103,-0.006 -1.190625,-0.53784 -1.190625,-0.53783 -1.014606,-0.97771 -1.014608,-0.97771 -0.506746,-0.98165 -0.506748,-0.98165 v -0.40741 -0.40742 H 59.593239 59.36884 l -0.492712,1.09264 -0.492713,1.09264 -0.0105,1.88393 -0.01048,1.88392 0.348612,0.82557 0.348613,0.82558 0.643575,0.29323 0.643575,0.29323 0.648708,-0.29557 0.648708,-0.29557 0.409625,-0.86322 0.409626,-0.86323 v -0.31905 -0.31905 l 0.463021,0.19752 0.46302,0.19751 1.491573,0.42688 1.491575,0.42689 -0.536376,1.43787 -0.536374,1.43788 -1.253427,1.25342 -1.253426,1.25343 -1.40344,0.41678 -1.403443,0.41679 -0.811874,-0.002 -0.811874,-0.002 -1.019889,-0.2832 -1.019889,-0.28319 -1.149761,-1.05981 -1.149757,-1.05981 -0.575699,-1.18924 -0.575699,-1.18923 -0.505672,1.12945 -0.505669,1.12945 -0.913474,1.11477 -0.913474,1.11478 -1.144563,0.55407 -1.144567,0.55408 h -1.362466 -1.362467 l -0.932392,-0.81866 -0.932394,-0.81865 -0.402627,-1.35579 -0.402627,-1.3558 -0.167621,-2.1807 -0.167625,-2.1807 -1.086249,-0.16204 -1.086252,-0.16205 -1.190625,0.0854 -1.190625,0.0854 -0.07245,4.412 -0.07245,4.412 -1.77963,0.39846 -1.77963,0.39846 -0.951294,0.17225 z m 87.600317,-5.05767 0.92403,-0.15333 0.20045,-0.12389 0.20046,-0.12389 v -0.49191 -0.49191 l -0.16632,-0.43341 -0.16631,-0.43341 -1.93212,-1.30378 -1.93211,-1.30378 -0.16615,-0.26882 -0.16614,-0.26883 -0.18282,0.001 -0.18283,0.001 -0.0677,1.17613 -0.0677,1.17614 -0.2453,0.64519 -0.2453,0.64519 0.61863,0.58117 0.61862,0.58117 1.01728,0.37134 1.01727,0.37134 0.92402,-0.15333 z m -13.58661,-6.82784 1.2855,-0.17666 0.74979,-0.14817 0.74979,-0.14816 -0.16444,-0.70171 -0.16443,-0.70171 -0.65489,-0.58553 -0.65488,-0.58554 -0.59193,0.21786 -0.59192,0.21787 -0.43527,0.76455 -0.43526,0.76454 -0.18878,0.62966 -0.18878,0.62967 z m 27.32958,10.95489 -1.17324,-0.001 -0.8779,-0.53523 -0.87789,-0.53523 -0.49622,-1.1218 -0.49622,-1.12178 -0.27899,-1.74639 -0.27899,-1.74638 -0.26272,-4.99613 -0.26273,-4.99612 -0.002,-0.0661 -0.002,-0.0661 h -1.05833 -1.05834 v -2.64896 -2.64896 l 1.05834,0.16923 1.05833,0.16924 v -1.75361 -1.75361 l 1.78594,-0.002 1.78594,-0.002 2.19233,-0.17066 2.19233,-0.17066 -0.17985,2.15662 -0.17985,2.15662 h 0.97567 0.97567 l -0.0777,1.91823 -0.0777,1.91823 -1.08629,0.0795 -1.0863,0.0795 -0.16889,2.16947 -0.16889,2.16946 -0.002,3.35454 -0.002,3.35454 0.39223,0.39222 0.39222,0.39222 0.53001,-0.1386 0.53001,-0.1386 0.88892,-0.98393 0.88892,-0.98393 0.14749,-2.67653 0.14748,-2.67653 0.70216,-1.5352 0.70215,-1.5352 0.71264,-0.76097 0.71265,-0.76096 1.05833,-0.49 1.05834,-0.48999 2.00338,-0.006 2.00339,-0.006 1.22206,0.4164 1.22205,0.41639 1.05395,1.1434 1.05395,1.14341 0.2832,1.01989 0.28319,1.01988 0.002,1.89498 0.002,1.89497 -0.99219,0.14653 -0.99219,0.14653 -2.64583,0.16185 -2.64584,0.16186 -0.49414,0.13945 -0.49414,0.13946 0.14404,1.07386 0.14403,1.07387 0.49875,0.66802 0.49874,0.66801 0.6716,0.50142 0.67159,0.50142 h 1.20844 1.20843 l 1.27862,-0.56428 1.27863,-0.56427 1.01399,-0.97913 1.014,-0.97913 0.3966,-0.7561 0.39659,-0.7561 -0.16702,-0.66548 -0.16702,-0.66547 -0.2581,-2.9412 -0.25811,-2.94121 0.16906,-1.12732 0.16905,-1.12733 3.2111,2.7e-4 3.21111,2.6e-4 0.0423,2.71171 0.0423,2.71171 0.4002,2.00991 0.40021,2.00991 0.40389,0.96665 0.40389,0.96665 h 0.5002 0.50019 l 0.31868,-0.69942 0.31868,-0.69942 0.38525,-1.83142 0.38525,-1.83141 v -2.47721 -2.47721 l 1.52135,-0.16781 1.52136,-0.16782 0.66146,-0.11953 0.66145,-0.11953 0.05,2.85342 0.0499,2.85342 0.39899,1.91355 0.39899,1.91356 0.34837,0.72685 0.34838,0.72686 h 0.3933 0.39331 l 0.45154,-0.92604 0.45154,-0.92605 0.41431,-2.38125 0.4143,-2.38125 0.0451,-2.57968 0.0451,-2.57969 h 3.25622 3.25622 v 2.85154 2.85155 l 0.41188,0.58804 0.41188,0.58804 h 0.87535 0.87536 l 0.67683,-0.5324 0.67682,-0.53238 0.17671,-0.80455 0.17671,-0.80454 0.30662,0.10107 0.30663,0.10106 0.0701,1.43431 0.0701,1.4343 -0.81619,1.41214 -0.8162,1.41214 -1.21105,0.5357 -1.21105,0.5357 -1.05157,-0.14104 -1.05158,-0.14105 -1.35687,-0.68603 -1.35686,-0.68602 0.82719,0.76451 0.8272,0.76451 0.33618,0.11206 0.33618,0.11206 -0.8683,1.81937 -0.86831,1.81937 -1.48569,1.51267 -1.4857,1.51266 -1.35779,0.28352 -1.35779,0.28352 -0.85066,-0.24397 -0.85067,-0.24396 -0.41534,-0.34185 -0.41535,-0.34184 -0.71265,-0.98084 -0.71266,-0.98083 -0.6323,0.98083 -0.63251,0.98088 -1.23478,0.61278 -1.23479,0.61279 -1.53208,-0.28322 -1.53208,-0.28322 -1.00375,-0.66425 -1.00374,-0.66424 -0.92057,-1.25282 -0.92057,-1.25282 -0.43819,-1.12499 -0.43818,-1.12498 -0.59429,1.25728 -0.59428,1.25727 -1.15552,1.11105 -1.15551,1.11105 -1.55069,0.70771 -1.55067,0.70771 -1.65419,0.13278 -1.65419,0.13278 -1.4099,-0.46829 -1.4099,-0.46829 -1.21446,-1.21867 -1.21445,-1.21866 -0.5609,-1.13897 -0.56089,-1.13896 -0.64809,1.41562 -0.6481,1.41562 -0.84477,0.96214 -0.84477,0.96214 -1.13024,0.54714 -1.13024,0.54714 -1.17323,-0.001 z m 13.05715,-10.96112 1.38003,-0.17998 0.59531,-0.14618 0.59531,-0.14618 v -0.35574 -0.35574 l -0.29376,-0.64474 -0.29376,-0.64473 -0.56613,-0.25793 -0.56614,-0.25794 -0.57802,0.21384 -0.57801,0.21383 -0.31093,0.58097 -0.31092,0.58097 -0.2265,0.78976 -0.22651,0.78976 z"
         id="path192" />
      <path
         style="fill:#bd372f;stroke-width:0.264583"
         d="m 32.408137,165.54794 -0.553538,0.13108 -0.181805,-4.43566 -0.181806,-4.43566 -0.09898,-0.099 -0.09898,-0.099 -1.080601,0.52209 -1.080598,0.52209 -0.242829,-0.96658 -0.242829,-0.96658 -0.319458,-1.40335 -0.319456,-1.40334 0.09679,-0.0968 0.09678,-0.0968 1.454388,-0.37084 1.454386,-0.37084 -0.09858,-6.30689 -0.09858,-6.30689 2.45433,0.17421 2.454328,0.17422 h 0.920732 0.920734 l -0.101484,5.88698 -0.101483,5.88698 2.288384,0.0761 2.288384,0.0761 0.17482,-3.11877 0.174821,-3.11876 0.226132,-2.86573 0.226134,-2.86572 0.100671,-0.10068 0.100671,-0.10067 3.427701,0.28294 3.427699,0.28294 0.03036,0.0376 0.03035,0.0376 -0.600488,3.83646 -0.60049,3.83646 -0.289761,2.89022 -0.289761,2.89023 v 2.17369 2.17369 l 0.491016,0.60638 0.491017,0.60638 0.867412,-0.35929 0.867413,-0.35929 0.758238,-1.19562 0.758237,-1.19562 v -0.99351 -0.99351 l 0.297492,-1.40208 0.297493,-1.40209 0.656981,-1.32291 0.656985,-1.32292 0.699169,-0.75184 0.699172,-0.75183 1.058333,-0.56006 1.058334,-0.56005 1.604243,0.008 1.604242,0.008 1.239322,0.59995 1.239319,0.59994 0.924634,1.08023 0.924631,1.08022 0.531284,1.41998 0.531283,1.41999 v 0.65153 0.65153 h 0.55449 0.55449 l 0.745882,-0.4406 0.745881,-0.4406 0.270055,-0.59272 0.270058,-0.59271 -0.152612,-2.89287 -0.152612,-2.89287 3.013956,-0.17365 3.013954,-0.17365 0.992187,-0.001 0.992188,-10e-4 v 0.78025 0.78025 l 0.982726,-0.41061 0.982723,-0.41061 0.964155,0.12932 0.964158,0.12932 0.999747,0.47441 0.999749,0.47442 0.69139,1.00096 0.691394,1.00096 0.173297,0.01 0.173296,0.0101 0.686412,-1.17127 0.686413,-1.17128 0.696185,-0.54762 0.696185,-0.54762 0.996937,-0.26845 0.996939,-0.26844 1.357496,0.29113 1.357497,0.29113 0.797626,0.67116 0.797629,0.67116 0.50664,0.9931 0.506643,0.9931 0.273508,1.68559 0.273507,1.6856 0.0021,2.68267 0.0021,2.68267 0.513125,0.62462 0.513122,0.62463 0.717627,-0.39688 0.717627,-0.39687 0.767588,-0.95228 0.76759,-0.95227 0.104,-2.38062 0.104,-2.38062 0.524017,-1.3791 0.52401,-1.37909 0.71878,-0.94237 0.71878,-0.94238 1.44438,-0.66125 1.44437,-0.66126 2.15581,0.11837 2.1558,0.11837 1.10915,0.57241 1.10915,0.57241 0.69909,0.91655 0.69909,0.91656 0.37457,1.2446 0.37457,1.24461 v 1.52983 1.52984 l -0.25901,0.16008 -0.25902,0.16008 -3.8703,0.30445 -3.8703,0.30445 -0.12168,0.3171 -0.12169,0.3171 0.30371,1.12788 0.3037,1.12787 0.72807,0.72807 0.72808,0.72807 1.06341,0.31861 1.06342,0.31861 1.46421,-0.42566 1.46421,-0.42566 1.39338,-1.25277 1.39339,-1.25278 0.59668,-1.28786 0.59667,-1.28786 -0.4989,-1.09876 -0.49891,-1.09875 -0.006,-1.28293 -0.006,-1.28293 0.43117,-0.90862 0.43117,-0.90862 1.03511,-0.88602 1.03512,-0.88602 1.24569,-0.35385 1.2457,-0.35384 1.49188,0.0155 1.49188,0.0156 1.19707,0.70153 1.19707,0.70153 0.53224,0.86224 0.53223,0.86224 0.32028,1.27395 0.32028,1.27395 -0.23417,0.22071 -0.23418,0.2207 -1.91823,0.18584 -1.91823,0.18584 v -0.41693 -0.41693 l -0.78061,-0.40367 -0.78061,-0.40367 h -0.50991 -0.50991 l -0.33349,0.40184 -0.3335,0.40183 0.49954,0.56199 0.49954,0.56198 1.8005,1.16044 1.8005,1.16045 1.142,1.14201 1.14201,1.142 0.3257,0.9869 0.32571,0.9869 -0.17266,1.1514 -0.17266,1.15141 -0.58503,0.86812 -0.58503,0.86812 -1.11593,0.85115 -1.11593,0.85115 -1.48552,0.30839 -1.48553,0.30839 -1.59179,-0.28038 -1.5918,-0.28039 -1.16946,-0.68536 -1.16947,-0.68535 -0.56924,-0.86839 -0.56925,-0.86839 -1.41034,0.98794 -1.41034,0.98795 -1.71045,0.46299 -1.71045,0.463 -1.32898,-0.15739 -1.32898,-0.1574 -0.99233,-0.46954 -0.99234,-0.46954 -1.09634,-1.12577 -1.09633,-1.12577 -0.49117,-1.19431 -0.49116,-1.1943 -0.19844,-0.001 -0.19865,-6.6e-4 v 0.28124 0.28124 l -0.717556,1.46545 -0.71756,1.46545 -1.168212,1.0283 -1.168213,1.02831 -0.958498,0.26624 -0.958498,0.26624 -0.79375,5.3e-4 -0.79375,5.3e-4 -0.877895,-0.53523 -0.877896,-0.53524 -0.547372,-1.23743 -0.547376,-1.23743 -0.220937,-3.17965 -0.220941,-3.17965 -0.171204,-1.14167 -0.171203,-1.14167 -0.449274,-0.55483 -0.449275,-0.55483 -0.572035,0.30614 -0.572037,0.30615 -0.386511,1.38272 -0.386511,1.38272 -0.28143,3.96875 -0.281427,3.96875 -0.162218,0.59532 -0.162216,0.59531 h -2.681121 -2.681121 v -5.10487 -5.10486 l -0.469119,-0.71597 -0.469123,-0.71597 h -0.349768 -0.349766 l -0.400418,0.46302 -0.400415,0.46302 -0.319521,0.92604 -0.319519,0.92605 -0.238443,3.96875 -0.23844,3.96875 -0.0087,0.29637 -0.0087,0.29637 -3.056067,0.46197 -3.056068,0.46197 -0.122015,-0.12201 -0.122013,-0.12202 -0.146081,-3.81133 -0.146082,-3.81132 -0.125188,-0.61415 -0.125187,-0.61415 -0.885333,0.77734 -0.885333,0.77733 -0.974828,0.18288 -0.974828,0.18288 -1.355776,-0.45032 -1.355775,-0.45032 -1.229024,-1.22902 -1.229024,-1.22902 -0.476012,-1.24642 -0.476009,-1.24641 h -0.221843 -0.221842 l -0.446334,0.8599 -0.446333,0.85989 -0.112708,1.85209 -0.112707,1.85208 0.353809,1.04894 0.353809,1.04893 0.702971,0.39382 0.702972,0.39382 0.701582,-0.31966 0.70158,-0.31966 0.526198,-1.18956 0.526201,-1.18956 0.724222,0.37451 0.724226,0.37451 0.983046,0.18442 0.983044,0.18442 -0.0058,0.30129 -0.0058,0.30128 -0.511172,1.12616 -0.511173,1.12616 -0.672497,0.88168 -0.672496,0.88169 -1.364478,0.74265 -1.36448,0.74264 -1.74552,0.009 -1.745522,0.009 -1.091197,-0.56526 -1.091198,-0.56525 -0.736586,-0.8715 -0.73659,-0.8715 -0.509058,-1.14564 -0.509058,-1.14563 -0.739868,1.54251 -0.739868,1.54251 -0.892037,0.89986 -0.89204,0.89985 -1.058334,0.4834 -1.058333,0.48339 -1.058333,0.005 -1.058334,0.005 -0.84705,-0.51648 -0.84705,-0.51648 -0.409678,-0.79223 -0.409679,-0.79223 -0.249885,-1.26999 -0.249886,-1.26999 -0.159464,-1.69903 -0.159467,-1.69903 -0.135472,-0.2192 -0.135472,-0.2192 H 39.56061 37.327268 v 4.45286 4.45286 l -2.182813,0.46134 -2.182812,0.46134 -0.553541,0.13108 z m 87.638293,-4.95626 0.83058,0.0239 0.62463,-0.51312 0.62462,-0.51312 -0.39687,-0.72082 -0.39688,-0.72082 -2.3151,-1.66798 -2.31511,-1.66798 v 1.16491 1.1649 l -0.27395,0.72057 -0.27396,0.72056 0.72704,0.75887 0.72704,0.75887 0.80369,0.23372 0.80368,0.23372 0.83059,0.0239 z m -12.88952,-6.96425 1.64382,-0.18598 0.46569,-0.18327 0.4657,-0.18326 -0.22629,-0.85852 -0.22628,-0.85852 -0.66509,-0.43579 -0.66508,-0.43578 -0.63663,0.29007 -0.63663,0.29006 -0.39295,0.60736 -0.39295,0.60737 -0.18856,0.76611 -0.18855,0.76612 z m 27.02209,10.94009 -0.94024,-0.0168 -0.52916,-0.21888 -0.52917,-0.21887 -0.58269,-0.62786 -0.58268,-0.62786 -0.37866,-0.92243 -0.37865,-0.92243 -0.30995,-2.24896 -0.30994,-2.24896 -0.18393,-4.49791 -0.18392,-4.49792 -0.96381,0.0277 -0.96382,0.0277 -0.15775,-0.9537 -0.15775,-0.9537 -0.003,-1.52136 -0.003,-1.52135 h 1.05834 1.05833 v -1.57551 -1.57551 l 0.8599,-0.13075 0.85989,-0.13076 2.99617,-0.12846 2.99616,-0.12846 -0.0857,2.07673 -0.0857,2.07673 1.02695,0.16356 1.02697,0.16356 -0.16707,1.21886 -0.16706,1.21887 v 0.46898 0.46898 l -1.03943,0.17561 -1.03942,0.17561 -0.18985,1.76588 -0.18986,1.76588 -0.0275,3.75809 -0.0275,3.7581 0.47054,0.47331 0.47054,0.4733 0.97794,-0.52723 0.97794,-0.52724 0.59769,-1.05833 0.59768,-1.05834 0.004,-2.04127 0.004,-2.04128 0.42976,-1.26601 0.42975,-1.26602 0.75985,-1.10452 0.75984,-1.10452 1.46017,-0.71439 1.46016,-0.71439 2.17888,0.11873 2.17888,0.11874 0.92604,0.47361 0.92604,0.47361 0.72684,0.68002 0.72685,0.68002 0.52993,1.41637 0.52992,1.41636 v 1.80807 1.80807 l -1.25677,0.15542 -1.25677,0.15541 -2.85126,0.17983 -2.85126,0.17984 -0.10546,0.17064 -0.10546,0.17064 0.26646,1.24935 0.26646,1.24936 0.78593,0.78593 0.78592,0.78593 1.0053,0.30119 1.0053,0.30119 1.43246,-0.41642 1.43246,-0.41643 1.12718,-0.86632 1.12719,-0.86633 0.6939,-1.00129 0.6939,-1.0013 -0.30433,-2.17788 -0.30432,-2.17787 2.6e-4,-2.71198 4.1e-4,-2.71198 h 3.13607 3.13607 l 0.14801,3.10885 0.148,3.10886 0.44645,1.98437 0.44645,1.98438 0.38724,0.61152 0.38724,0.61152 0.57859,-0.0823 0.57859,-0.0824 0.44787,-1.34924 0.44787,-1.34925 0.31093,-2.33653 0.31094,-2.33653 -0.14689,-1.24028 -0.1469,-1.24027 1.37247,-0.16488 1.37246,-0.16488 0.72761,-0.002 0.7276,-0.002 0.001,2.05052 10e-4,2.05052 0.40053,2.46966 0.40053,2.46966 0.39027,0.7547 0.39028,0.75472 0.29315,0.18117 0.29315,0.18118 0.49088,-0.49513 0.49088,-0.49513 0.3929,-1.51715 0.3929,-1.51715 0.31123,-2.67705 0.31122,-2.67706 -0.12452,-1.2959 -0.12452,-1.2959 h 3.29992 3.29992 l -0.15911,2.4474 -0.15911,2.44739 0.32608,0.90617 0.32608,0.90617 0.71568,0.23639 0.71568,0.23638 0.88924,-0.42198 0.88925,-0.42197 0.54789,-1.11745 0.54789,-1.11746 0.19372,1.00276 0.19371,1.00275 -0.34552,1.23411 -0.34553,1.23411 -0.90504,1.00176 -0.90503,1.00176 -1.05196,0.28327 -1.05197,0.28326 -0.83775,-0.18105 -0.83776,-0.18105 -1.25677,-0.63332 -1.25677,-0.63331 v 0.26661 0.2666 l 0.92277,0.59775 0.92276,0.59774 0.003,0.28847 0.003,0.28847 -0.78618,1.5733 -0.78619,1.5733 -0.96203,1.12392 -0.96204,1.12392 -1.01936,0.52004 -1.01936,0.52004 -1.26732,-0.002 -1.26731,-0.002 -0.733,-0.48334 -0.733,-0.48333 -0.66694,-0.90399 -0.66694,-0.90398 -0.18756,0.1044 -0.18756,0.1044 -0.58991,0.79958 -0.58992,0.79959 -0.733,0.48333 -0.733,0.48334 -1.46941,0.002 -1.4694,0.002 -1.37857,-0.68697 -1.37858,-0.68697 -1.04298,-1.45651 -1.04298,-1.4565 -0.44259,-1.1589 -0.44259,-1.1589 -0.71836,1.51644 -0.71836,1.51644 -1.08773,0.98073 -1.08773,0.98072 -1.00411,0.50471 -1.00411,0.50471 -1.41827,0.3339 -1.41826,0.33389 -1.27562,-0.15108 -1.27562,-0.15107 -1.06153,-0.54156 -1.06154,-0.54155 -0.93387,-0.96158 -0.93387,-0.96157 -0.64602,-1.29639 -0.64602,-1.2964 -0.66756,1.45815 -0.66757,1.45815 -0.69939,0.91696 -0.6994,0.91695 -1.35332,0.6744 -1.35333,0.67439 -0.94024,-0.0168 z m 12.35507,-10.84692 0.72761,-0.0158 1.25931,-0.20725 1.2593,-0.20725 0.14526,-0.14525 0.14525,-0.14526 -0.39862,-0.95405 -0.39863,-0.95404 -0.66437,-0.30271 -0.66437,-0.30271 -0.69439,0.45499 -0.6944,0.45498 -0.37478,0.89697 -0.37477,0.89696 v 0.27308 0.27309 l 0.7276,-0.0158 z"
         id="path190" />
      <path
         style="fill:#c23229;stroke-width:0.264583"
         d="m 32.234073,165.54343 -0.463021,0.13485 v -2.63467 -2.63468 l 2.050521,-0.54486 2.050521,-0.54487 0.727604,-0.17426 0.727604,-0.17427 v 2.7706 2.77061 l -2.315104,0.44834 -2.315104,0.44835 z m 89.495317,-0.60335 -1.19063,0.13493 -1.19062,-0.24183 -1.19063,-0.24183 -0.73452,-0.30308 -0.73452,-0.30308 -1.18371,-1.31656 -1.18371,-1.31657 v -0.22153 -0.22153 l 0.71987,-0.34517 0.71986,-0.34516 0.29594,-0.59375 0.29594,-0.59374 0.17482,0.17482 0.17482,0.17482 v 0.88194 0.88195 h 0.48507 0.48507 l 0.19098,-0.19098 0.19097,-0.19097 1.24219,-0.0786 1.24218,-0.0786 1.38906,-0.57288 1.38907,-0.57288 v -0.35043 -0.35043 l 0.48923,0.30554 0.48923,0.30553 0.70139,-0.17604 0.7014,-0.17604 v -0.40115 -0.40114 l -0.51178,0.2739 -0.51177,0.27389 h -0.14968 -0.14969 v -0.22212 -0.22211 l 0.66146,-0.30138 0.66146,-0.30138 v -0.63882 -0.63883 l -0.41604,-0.15965 -0.41605,-0.15965 -0.49866,0.26688 -0.49868,0.26688 -0.25943,0.45977 -0.25944,0.45978 -0.33398,-0.33073 -0.33397,-0.33073 h -0.38927 -0.38928 l -0.47203,0.42719 -0.47203,0.42718 -2.10281,-1.47347 -2.1028,-1.47348 -0.15701,1.24473 -0.15702,1.24473 -0.0577,0.43313 -0.0576,0.43314 -0.96251,-0.0363 -0.9625,-0.0363 0.61414,-0.80799 0.61414,-0.80799 0.4179,-1.00018 0.4179,-1.00018 -0.57343,-1.18455 -0.57343,-1.18455 0.12011,-1.44833 0.1201,-1.44832 0.78222,-1.11296 0.78222,-1.11296 1.03032,-0.57794 1.03032,-0.57795 1.53437,-0.27027 1.53438,-0.27028 1.38565,0.35944 1.38566,0.35943 0.98452,1.05546 0.98452,1.05545 0.4297,1.47813 0.4297,1.47813 -0.14153,0.229 -0.14153,0.229 -1.76091,0.16444 -1.76091,0.16444 -0.73502,-0.78684 -0.73502,-0.78684 h -0.66595 -0.66596 l -0.41851,0.1606 -0.41852,0.1606 v 0.49279 0.4928 l 2.05052,1.37374 2.05052,1.37374 0.86911,0.75099 0.8691,0.75099 h -0.19442 -0.19441 l 0.3175,0.3175 0.3175,0.3175 v 1.13771 1.13771 h 0.24896 0.24897 l 0.16353,-0.26459 0.16352,-0.26458 h -0.2802 -0.2802 l 0.0106,-0.8599 0.0106,-0.85989 0.43374,0.79375 0.43375,0.79375 -0.002,1.19062 -0.002,1.19063 -0.5491,1.05833 -0.54909,1.05834 -0.62436,0.58238 -0.62436,0.58239 -1.18733,0.52023 -1.18732,0.52022 -1.19063,0.13494 z m -75.141671,-0.36762 -0.926042,-2.2e-4 -0.855583,-0.42181 -0.855583,-0.42181 -0.670751,-1.37096 -0.67075,-1.37097 -0.165571,-1.77307 -0.165574,-1.77308 h 0.302845 0.302842 v -0.26458 -0.26459 h -0.396875 -0.396875 v -0.66145 -0.66146 h -2.38125 -2.38125 v 1.41183 1.41183 l -2.676932,0.71784 -2.676933,0.71783 -0.145595,-0.1456 -0.145597,-0.14559 -0.12065,-1.45491 -0.120653,-1.4549 h -0.108027 -0.108027 l -0.958167,0.40035 -0.958167,0.40035 -0.125643,-0.12565 -0.125643,-0.12564 -0.493128,-2.06064 -0.493125,-2.06064 -0.0021,-0.18807 -0.0021,-0.18806 1.625822,-0.33581 1.625823,-0.33581 -0.184717,-5.89227 -0.184615,-5.89228 h 0.720873 0.720876 l 0.417708,-0.35073 0.417708,-0.35072 2.16883,0.11352 2.168826,0.11353 -0.159985,5.92574 -0.159986,5.92575 h 2.401869 2.401869 l 0.139504,-1.65365 0.139504,-1.65364 0.262311,-4.32746 0.262308,-4.32746 0.09105,-0.091 0.09105,-0.091 3.437495,0.2876 3.437494,0.28759 -0.580158,3.73403 -0.580154,3.73404 -0.332219,3.24327 -0.332219,3.24328 -1.046199,0.28171 -1.046202,0.28171 0.29824,0.29825 0.298239,0.29823 v 0.70776 0.70776 l 0.161464,0.80733 0.161465,0.80732 0.367702,-0.1411 0.367702,-0.1411 v -0.63315 -0.63315 h 0.264584 0.264583 v 0.67885 0.67885 l 0.273891,0.51178 0.273894,0.51177 h 0.685104 0.685107 l 1.281811,-1.32292 1.281809,-1.32291 h 0.66961 0.669607 v -0.39688 -0.39687 H 53.73151 53.466927 v -1.05003 -1.05003 l -0.437724,0.16797 -0.437724,0.16797 0.185046,-1.15722 0.185047,-1.15723 0.500433,-1.1313 0.500433,-1.13131 0.719688,-0.94357 0.719691,-0.94356 1.181568,-0.69244 1.181568,-0.69245 h 1.528482 1.528485 l 1.45546,0.71209 1.455457,0.71209 0.648663,0.85336 0.648663,0.85337 0.442886,0.85989 0.442883,0.8599 h -0.271377 -0.271378 v 0.26458 0.26458 h 0.393747 0.393748 l 0.169236,1.05834 0.169235,1.05833 0.561496,-0.001 0.561496,-0.001 0.852795,-0.51997 0.852797,-0.51997 0.12909,-0.60352 0.12909,-0.60352 0.07645,-0.50638 0.07645,-0.50639 6.345822,-1.70639 6.34582,-1.70639 1.250492,1.35996 1.250492,1.35997 0.438569,-0.86698 0.438568,-0.86698 0.643688,-0.85989 0.643687,-0.8599 h 0.251118 0.251119 v 0.52917 0.52916 h 0.55785 0.55785 l -0.15228,-0.60673 -0.152281,-0.60673 0.71891,-0.26372 0.71891,-0.26372 0.46302,0.0961 0.463021,0.0961 v 0.40692 0.40692 l 0.946092,-0.17748 0.946092,-0.17749 0.899197,0.95342 0.899194,0.95343 0.417814,1.37743 0.417815,1.37743 0.134366,3.43958 0.134366,3.43958 0.116689,0.57768 0.116689,0.57768 0.515329,0.16356 0.515326,0.16356 0.781431,-0.40409 0.781429,-0.4041 0.620858,-0.9986 0.620855,-0.99846 0.151257,-2.6693 0.15126,-2.6693 0.929399,-1.69633 0.92939,-1.69632 1.22942,-0.76258 1.22942,-0.76257 1.8108,-0.12956 1.81081,-0.12956 1.44079,0.41885 1.4408,0.41885 0.89544,0.87016 0.89545,0.87016 0.53513,1.19062 0.53515,1.19063 0.0192,1.89478 0.0192,1.89478 -0.16579,0.16719 -0.16579,0.16719 -4.0014,0.29956 -4.00139,0.29956 v 0.57555 0.57555 l 0.30058,0.89938 0.30059,0.89937 0.66909,0.72149 0.6691,0.72149 0.90954,0.30017 0.90954,0.30018 1.05548,-0.16878 1.05547,-0.16877 1.02351,-0.52216 1.02352,-0.52216 h 0.15545 0.15546 l -0.0788,1.65365 -0.0788,1.65364 -1.80539,0.90629 -1.80539,0.90629 -1.76649,0.0198 -1.76648,0.0198 -1.27285,-0.49104 -1.27284,-0.49105 0.11687,-0.11687 0.11687,-0.11687 2.84111,-0.76857 2.84112,-0.76855 0.14489,-0.14489 0.14489,-0.14489 -0.37482,2.3e-4 -0.37483,2.4e-4 -2.91042,0.78114 -2.91042,0.78113 -0.86975,-0.84283 -0.86976,-0.84283 -0.67695,-1.43097 -0.67696,-1.43096 -0.623443,1.53395 -0.623443,1.53395 -0.753531,0.95066 -0.753531,0.95066 -1.423239,0.72761 -1.423238,0.7276 H 93.830418 93.01384 l -0.921915,-0.49424 -0.921914,-0.49423 -0.61655,-1.19738 -0.616551,-1.19737 -0.246872,-3.72227 -0.246872,-3.72227 -0.327203,-0.97645 -0.327202,-0.97645 -0.447532,-0.27928 -0.447535,-0.27927 -0.517347,0.46819 -0.517348,0.46819 -0.300136,1.19195 -0.300135,1.19195 -0.135469,2.56207 -0.135467,2.56207 -0.286888,2.0594 -0.28689,2.05941 -2.637115,-0.075 -2.637118,-0.075 0.03595,-4.40346 0.03595,-4.40346 -0.304778,-1.21039 -0.304782,-1.2104 -0.462634,-0.14683 -0.462635,-0.14684 -0.413589,0.15872 -0.413591,0.1587 -0.43389,1.0844 -0.433891,1.0844 -0.238789,3.45925 -0.238789,3.45924 -0.0093,0.94784 -0.0093,0.94784 -3.06699,0.46104 -3.066989,0.46104 -0.09842,-0.0984 -0.09842,-0.0984 -0.181898,-4.66031 -0.181896,-4.66031 -0.822979,0.87261 -0.822975,0.87261 -1.036709,0.28625 -1.036712,0.28625 -1.076862,-0.27191 -1.076865,-0.2719 -1.256771,-0.91311 -1.256771,-0.91311 v -0.26202 -0.26201 h 0.264584 0.264583 v -0.25628 -0.25628 l -0.396875,0.1523 -0.396875,0.15229 v -1.19688 -1.19689 l 0.330729,-0.13345 0.330729,-0.13345 -0.46302,-0.0209 -0.463016,-0.0209 v -0.44097 -0.44097 l -0.166055,0.16605 -0.166053,0.16606 0.0078,1.2671 0.0078,1.26711 -0.358963,-0.79375 -0.358963,-0.79375 -0.01193,-0.46302 -0.01192,-0.46302 h -0.264584 -0.264583 l 0.05611,0.19843 0.05611,0.19844 -0.367847,0.56891 -0.367851,0.56892 -0.351758,-0.13499 -0.351761,-0.13498 -0.659416,0.43207 -0.659415,0.43206 v 0.88755 0.88754 l 0.393507,0.32658 0.393504,0.32658 0.36916,-0.14165 0.369157,-0.14166 0.119909,1.44594 0.119909,1.44595 0.533035,0.71663 0.533032,0.71664 0.584065,0.0866 0.584065,0.0865 0.668261,-0.43786 0.668261,-0.43786 0.38803,-0.92869 0.388027,-0.92868 0.449768,0.19072 0.449768,0.19073 1.190625,0.2761 1.190625,0.2761 0.06537,0.0407 0.06538,0.0407 -0.420452,1.23396 -0.420452,1.23396 -1.16423,1.2949 -1.16423,1.29491 -1.126525,0.4529 -1.126527,0.4529 -1.455208,0.0106 -1.455208,0.0106 -0.934038,-0.39613 -0.934037,-0.39613 -0.864137,-0.86414 -0.86414,-0.86414 -0.768784,-1.48876 -0.768786,-1.48877 -0.01273,0.35845 -0.01273,0.35845 -0.679802,1.36134 -0.679802,1.36135 -0.841552,0.8922 -0.841553,0.8922 -1.058333,0.49105 -1.058333,0.49105 -0.926042,-2.1e-4 z m 8.317775,-8.71942 h 0.63478 l 0.418513,-0.1606 0.418515,-0.1606 v -0.37081 -0.37081 l -0.522562,0.32635 -0.522563,0.32634 -0.304731,-0.30473 -0.304734,-0.30473 0.17177,-0.68438 0.171768,-0.68438 0.690022,0.17318 0.69002,0.17318 -0.12269,-0.36806 -0.122689,-0.36807 h -0.761556 -0.761555 l -0.381559,0.67979 -0.381555,0.67979 0.178014,0.70927 0.178014,0.70927 z m 52.665456,-2.2404 1.98116,-0.31079 0.15101,-0.15102 0.15102,-0.15101 -0.39863,-0.95405 -0.39863,-0.95405 -0.6752,-0.30764 -0.67521,-0.30765 -0.61956,0.2823 -0.61956,0.28229 -0.43878,0.92464 -0.43877,0.92464 v 0.51657 0.51657 z m 26.30225,10.97017 -0.68847,0.002 -0.89903,-0.5988 -0.89902,-0.59881 -0.4931,-1.00604 -0.4931,-1.00605 -0.35318,-2.36424 -0.35318,-2.36424 -0.18653,-4.65379 -0.18652,-4.65378 -1.01772,0.0971 -1.01771,0.097 v -2.45439 -2.45439 h 0.92604 0.92604 v -1.57128 -1.57129 l 1.12448,-0.13721 1.12448,-0.13721 2.74821,-0.12061 2.74821,-0.12061 -0.1435,2.09369 -0.14351,2.09369 h 0.48251 0.48251 l 0.41851,0.1606 0.41852,0.1606 v 1.65767 1.65767 l -1.02482,0.16387 -1.02481,0.16388 -0.16581,0.82905 -0.16581,0.82895 -0.0196,1.35599 -0.0196,1.35599 -0.17883,1.16706 -0.17882,1.16707 -1.6861,0.47493 -1.68609,0.47492 -0.14394,0.14395 -0.14394,0.14394 0.11405,0.11405 0.11404,0.11405 1.78214,-0.49417 1.78213,-0.49417 v 1.77646 1.77645 l 0.41187,0.58804 0.41188,0.58804 h 0.49387 0.49386 l 0.82002,-0.69 0.82001,-0.68999 0.31983,-0.56678 0.31983,-0.56677 0.13723,-1.69477 0.13722,-1.69477 3.23342,-0.85683 3.23341,-0.85683 -0.38914,0.75252 -0.38915,0.75253 v 0.50225 0.50225 l 1.52136,-0.22575 1.52135,-0.22575 0.62111,-0.14259 0.6211,-0.14258 -0.1787,-0.71609 -0.17869,-0.71609 -0.41228,-0.45751 -0.41228,-0.4575 0.49904,-0.16319 0.49904,-0.16319 0.33072,-0.0986 0.33073,-0.0986 v -0.26459 -0.26458 l -0.33073,0.11651 -0.33072,0.1165 -4.49792,1.20641 -4.49792,1.20641 -0.48983,0.15033 -0.48982,0.15033 0.18786,-0.88624 0.18787,-0.88623 0.53037,-1.2507 0.53037,-1.2507 1.13295,-1.04432 1.13295,-1.04432 1.01989,-0.28319 1.01989,-0.2832 1.34701,-0.002 1.34702,-0.002 1.21351,0.36521 1.21351,0.36522 0.76027,0.54135 0.76026,0.54136 0.74035,1.36027 0.74035,1.36027 0.14129,2.06139 0.14129,2.06139 -0.29113,0.17992 -0.29113,0.17993 -3.87053,0.29883 -3.87053,0.29883 -0.12458,0.32466 -0.12458,0.32465 0.30852,1.14575 0.30851,1.14574 0.89269,0.84191 0.89268,0.84191 1.03563,0.17497 1.03562,0.17497 1.02605,-0.27629 1.02606,-0.27629 1.24182,-0.78754 1.24183,-0.78754 0.83076,-1.13721 0.83076,-1.1372 -0.14476,-1.45521 -0.14477,-1.45521 -0.17885,-1.72848 -0.17884,-1.72848 0.6714,-0.30591 0.67141,-0.30591 0.16989,-0.53531 0.1699,-0.5353 -0.28855,-0.53916 -0.28855,-0.53916 h -0.51985 -0.51986 v -0.39687 -0.39688 l 0.99218,0.004 0.99219,0.004 -0.39687,0.26053 -0.39688,0.26053 0.31481,0.20421 0.31481,0.20422 0.0821,1.44943 0.0821,1.44943 0.59531,0.0846 0.59532,0.0846 v -0.26737 -0.26737 l -0.26459,-0.16352 -0.26458,-0.16352 v -1.57189 -1.57189 l 1.78594,2.6e-4 1.78594,2.5e-4 0.0645,2.31485 0.0645,2.31485 0.39682,2.3056 0.39682,2.3056 0.41909,1.04742 0.41909,1.04742 0.4002,0.15357 0.40019,0.15357 0.24259,-0.14993 0.24259,-0.14993 0.36479,-0.71082 0.3648,-0.71083 0.32978,-1.5875 0.32979,-1.5875 0.16343,-2.64583 0.16344,-2.64584 h 0.70409 0.70409 l 0.1999,-0.19844 0.1999,-0.19843 h 1.01424 1.01423 l 0.009,2.44739 0.009,2.4474 0.3552,1.98437 0.35521,1.98438 0.41581,0.99219 0.41582,0.99218 h 0.53587 0.53587 l 0.40515,-0.78346 0.40514,-0.78346 0.41031,-1.92852 0.41031,-1.92851 0.1576,-3.24115 0.15759,-3.24115 h 3.15736 3.15736 l -0.18555,1.9801 -0.18554,1.98009 0.17993,1.19992 0.17994,1.19992 0.67206,0.44036 0.67206,0.44034 1.09692,-0.37921 1.09689,-0.37899 0.56637,-1.12181 0.56637,-1.12181 0.17249,0.91945 0.17249,0.91945 -0.27528,1.0223 -0.27527,1.02228 -0.59677,0.88556 -0.59678,0.88555 -0.8928,0.52142 -0.8928,0.52143 h -1.13015 -1.13015 l -1.49843,-0.73311 -1.49842,-0.73311 -0.12692,0.12692 -0.12692,0.12693 0.79515,0.66907 0.79515,0.66907 0.34027,0.11343 0.34028,0.11342 -0.66123,1.4224 -0.66123,1.42238 -1.09664,1.49512 -1.09663,1.49512 -1.16971,0.56625 -1.16972,0.56625 h -1.23861 -1.23863 l -1.04779,-0.94663 -1.0478,-0.94662 -0.16142,-0.50858 -0.16142,-0.50859 h -0.36121 -0.36122 l -0.15208,0.47916 -0.15208,0.47917 -0.91559,0.88742 -0.9156,0.88743 -1.47054,0.12195 -1.47054,0.12195 -1.16291,-0.44412 -1.1629,-0.44411 -1.10685,-1.20079 -1.10685,-1.20079 -0.84082,-1.81528 -0.84082,-1.81528 -0.45801,1.28956 -0.45801,1.28957 -1.18902,1.2234 -1.18901,1.2234 -1.62207,0.76712 -1.62208,0.76712 -1.39051,0.17374 -1.39052,0.17373 -1.50373,-0.43715 -1.50373,-0.43714 -1.12944,-1.04108 -1.12944,-1.04109 -0.80313,-1.49674 -0.80314,-1.49674 -0.82062,1.71946 -0.82062,1.71945 -1.16751,1.07617 -1.1675,1.07617 -1.01989,0.2832 -1.01989,0.28319 -0.68848,0.002 z m 26.08848,-14.95539 0.52917,-0.1671 0.59531,-0.14178 0.59531,-0.14177 v -0.21813 -0.21812 l -0.26458,-0.16352 -0.26459,-0.16352 v -1.02425 -1.02425 l -0.85989,0.24515 -0.8599,0.24515 -0.33073,0.44841 -0.33073,0.44841 v 0.69026 0.69026 l 0.33073,0.33095 0.33073,0.33095 z m 0,-0.65355 h -0.39688 v -0.62906 -0.62906 l 0.39688,-0.32938 0.39687,-0.32937 v 0.95844 0.95843 z m -42.20104,11.64167 h -0.26459 v -0.26458 -0.26459 h 0.26459 0.26458 v 0.26459 0.26458 z m -2.97657,-0.57861 -0.46302,0.0882 v -0.68086 -0.68085 h 0.54757 0.54757 l -0.0846,0.59261 -0.0845,0.59261 z m 7.59796,-0.74431 h -0.29987 l -0.17638,-0.17639 -0.17639,-0.17638 v -0.60175 -0.60175 l 0.2463,-0.15222 0.2463,-0.15222 0.15905,0.25734 0.15904,0.25735 0.38841,-0.14905 0.3884,-0.14904 v 0.50456 0.50455 l -0.3175,0.3175 -0.3175,0.3175 z m 1.9691,-1.5875 h -0.22389 l 0.1523,-0.39687 0.1523,-0.39688 h 0.40096 0.40096 l -0.32937,0.39688 -0.32938,0.39687 z m -76.572786,-1.5875 h -0.396875 v -0.66145 -0.66146 h 0.396875 0.396875 v 0.66146 0.66145 z m 4.811998,-0.32764 -0.120406,0.45994 0.0053,-1.05834 0.0053,-1.05833 0.115067,0.5984 0.115067,0.59839 -0.120406,0.45994 z m 5.242169,-1.25986 h -0.396875 v -0.10398 -0.10398 l 0.396875,-0.1523 0.396875,-0.1523 v 0.25628 0.25628 z m -0.08268,-0.85438 -0.314192,0.10473 v -0.41892 -0.41893 h 0.418922 0.418926 l -0.104733,0.3142 -0.10473,0.31419 z m 12.009726,-3.90812 h -0.09137 l -0.159536,-0.59531 -0.159538,-0.59531 -0.0036,-1.52136 -0.0036,-1.52135 h 1.149466 1.149464 l 2.819286,-0.1725 2.819284,-0.1725 v 0.83396 0.83396 h 0.248968 0.24897 l 0.149291,-0.24157 0.149294,-0.24156 0.990801,-0.15893 0.990801,-0.15893 0.79375,0.23559 0.79375,0.2356 -0.396875,0.15029 -0.396875,0.15029 -5.500172,1.46982 -5.500169,1.46981 z m 86.101083,-0.92604 -0.26459,0.16352 v -0.67707 -0.67707 h 0.26459 0.26458 v 0.51355 0.51355 z m -123.979341,-9.14901 -0.507119,-0.0209 0.347266,-0.13896 0.347265,-0.13897 0.159854,0.15985 0.15985,0.15986 -0.507116,-0.0209 z"
         id="path188" />
    </g>
  </g>
</svg>
